<?xml version="1.0" standalone="no"?><svg xmlns="http://www.w3.org/2000/svg" viewBox="0 0 1440 320"><path fill="#000b76" fill-opacity="1" d="M0,128L26.7,133.3C53.3,139,107,149,160,160C213.3,171,267,181,320,181.3C373.3,181,427,171,480,181.3C533.3,192,587,224,640,229.3C693.3,235,747,213,800,181.3C853.3,149,907,107,960,80C1013.3,53,1067,43,1120,37.3C1173.3,32,1227,32,1280,64C1333.3,96,1387,160,1413,192L1440,224L1440,320L1413.3,320C1386.7,320,1333,320,1280,320C1226.7,320,1173,320,1120,320C1066.7,320,1013,320,960,320C906.7,320,853,320,800,320C746.7,320,693,320,640,320C586.7,320,533,320,480,320C426.7,320,373,320,320,320C266.7,320,213,320,160,320C106.7,320,53,320,27,320L0,320Z"></path></svg>